# Blender v2.79 (sub 0) OBJ File: 'Bipod.blend'
# www.blender.org
mtllib Bipod.mtl
o Bipod_Cube.049
v -0.079641 -0.052410 0.077049
v -0.079641 0.088375 0.077049
v 0.065635 -0.052410 0.077049
v 0.065635 0.088375 0.077049
v -0.011933 -0.535986 0.214010
v -0.011933 -0.049544 -0.017249
v 0.011988 -0.532271 0.223714
v 0.014542 -0.045234 -0.007048
v 0.022420 -0.522421 0.248268
v 0.026436 -0.033785 0.019100
v 0.011728 -0.512407 0.272500
v 0.014803 -0.021978 0.045428
v -0.011933 -0.508517 0.281864
v -0.011933 -0.017307 0.055743
v -0.035593 -0.512407 0.272500
v -0.038668 -0.021978 0.045428
v -0.046285 -0.522421 0.248268
v -0.050301 -0.033785 0.019100
v -0.035854 -0.532271 0.223714
v -0.038408 -0.045234 -0.007048
v -0.011933 -0.565910 0.242498
v 0.003859 -0.563212 0.248794
v 0.010769 -0.556118 0.265010
v 0.003469 -0.549178 0.280886
v -0.011933 -0.546634 0.286830
v -0.027334 -0.549178 0.280886
v -0.034634 -0.556118 0.265010
v -0.027724 -0.563212 0.248794
v -0.011933 -0.562464 0.247658
v -0.000066 -0.560408 0.252982
v 0.004270 -0.555314 0.265318
v -0.001250 -0.550262 0.276723
v -0.011933 -0.548276 0.280882
v -0.022615 -0.550262 0.276723
v -0.028135 -0.555314 0.265318
v -0.023799 -0.560408 0.252982
v -0.011933 -1.113978 0.507872
v -0.003334 -1.112477 0.511285
v 0.001456 -1.108379 0.521250
v -0.002243 -1.104265 0.532088
v -0.011933 -1.102730 0.536603
v -0.021622 -1.104265 0.532088
v -0.025321 -1.108380 0.521250
v -0.020531 -1.112477 0.511285
v -0.011933 -1.121691 0.497506
v 0.006696 -1.118502 0.504684
v 0.014578 -1.110689 0.522221
v 0.006819 -1.102828 0.539867
v -0.011933 -1.099602 0.547153
v -0.030684 -1.102828 0.539867
v -0.038443 -1.110689 0.522221
v -0.030561 -1.118502 0.504684
v -0.011933 -1.208669 0.537389
v 0.007024 -1.205484 0.544514
v 0.015293 -1.197396 0.562375
v 0.007298 -1.189205 0.580434
v -0.011933 -1.185866 0.587774
v -0.031163 -1.189205 0.580434
v -0.039158 -1.197396 0.562375
v -0.030889 -1.205484 0.544514
v -0.011933 -1.214977 0.523984
v 0.017634 -1.209840 0.535213
v 0.029987 -1.197306 0.562486
v 0.017662 -1.184713 0.589769
v -0.011933 -1.179522 0.601011
v -0.041527 -1.184713 0.589768
v -0.053852 -1.197306 0.562486
v -0.041499 -1.209840 0.535213
v -0.011933 -1.236240 0.538940
v 0.014475 -1.231684 0.549016
v 0.025540 -1.220488 0.573554
v 0.014481 -1.209216 0.598063
v -0.011933 -1.204580 0.608111
v -0.038346 -1.209216 0.598062
v -0.049406 -1.220488 0.573554
v -0.038340 -1.231684 0.549016
v -0.011933 -1.243098 0.550415
v 0.009423 -1.239384 0.558603
v 0.018261 -1.230325 0.578395
v 0.009326 -1.221225 0.598076
v -0.011933 -1.217461 0.606149
v -0.033191 -1.221225 0.598076
v -0.042126 -1.230325 0.578395
v -0.033288 -1.239384 0.558603
v -0.011933 -1.241135 0.566069
v -0.000901 -1.239193 0.570274
v 0.003681 -1.234464 0.580477
v -0.000950 -1.229740 0.590630
v -0.011933 -1.227801 0.594785
v -0.022915 -1.229740 0.590630
v -0.027546 -1.234464 0.580477
v -0.022964 -1.239193 0.570274
v -0.011933 0.002370 0.044040
v -0.001798 -0.001828 0.044040
v 0.002400 -0.011963 0.044040
v -0.001798 -0.022098 0.044040
v -0.011933 -0.026296 0.044040
v -0.022067 -0.022098 0.044040
v -0.026265 -0.011963 0.044040
v -0.022067 -0.001828 0.044040
v -0.001798 -0.001828 0.121470
v -0.011933 0.002370 0.121470
v 0.002400 -0.011963 0.121470
v -0.001798 -0.022098 0.121470
v -0.011933 -0.026296 0.121470
v -0.022067 -0.022098 0.121470
v -0.026265 -0.011963 0.121470
v -0.022067 -0.001828 0.121470
v -0.011933 -0.294013 0.169722
v -0.007106 -0.295686 0.170771
v -0.004760 -0.300256 0.173498
v -0.006848 -0.305092 0.176297
v -0.011933 -0.307016 0.177413
v -0.017017 -0.305092 0.176297
v -0.019105 -0.300256 0.173498
v -0.016759 -0.295686 0.170771
v -0.006848 -0.274994 0.219090
v -0.011933 -0.273069 0.217975
v -0.004760 -0.279830 0.221890
v -0.007106 -0.284400 0.224617
v -0.011933 -0.286073 0.225666
v -0.016759 -0.284400 0.224617
v -0.019105 -0.279830 0.221890
v -0.017017 -0.274994 0.219090
v -0.079641 -0.052410 -0.077049
v -0.079641 0.088375 -0.077049
v 0.065635 -0.052410 -0.077049
v 0.065635 0.088375 -0.077049
v -0.011933 -0.535986 -0.214010
v -0.011933 -0.049544 0.017249
v 0.011988 -0.532271 -0.223714
v 0.014542 -0.045234 0.007048
v 0.022420 -0.522421 -0.248268
v 0.026436 -0.033785 -0.019100
v 0.011728 -0.512407 -0.272500
v 0.014803 -0.021978 -0.045428
v -0.011933 -0.508517 -0.281864
v -0.011933 -0.017307 -0.055743
v -0.035593 -0.512407 -0.272500
v -0.038668 -0.021978 -0.045428
v -0.046285 -0.522421 -0.248268
v -0.050301 -0.033785 -0.019100
v -0.035854 -0.532271 -0.223714
v -0.038408 -0.045234 0.007048
v -0.011933 -0.565910 -0.242498
v 0.003859 -0.563212 -0.248794
v 0.010769 -0.556118 -0.265010
v 0.003469 -0.549178 -0.280886
v -0.011933 -0.546634 -0.286830
v -0.027334 -0.549178 -0.280886
v -0.034634 -0.556118 -0.265010
v -0.027724 -0.563212 -0.248794
v -0.011933 -0.562464 -0.247658
v -0.000066 -0.560408 -0.252982
v 0.004270 -0.555314 -0.265318
v -0.001250 -0.550262 -0.276723
v -0.011933 -0.548276 -0.280882
v -0.022615 -0.550262 -0.276723
v -0.028135 -0.555314 -0.265318
v -0.023799 -0.560408 -0.252982
v -0.011933 -1.113978 -0.507872
v -0.003334 -1.112477 -0.511285
v 0.001456 -1.108379 -0.521250
v -0.002243 -1.104265 -0.532088
v -0.011933 -1.102730 -0.536603
v -0.021622 -1.104265 -0.532088
v -0.025321 -1.108380 -0.521250
v -0.020531 -1.112477 -0.511285
v -0.011933 -1.121691 -0.497506
v 0.006696 -1.118502 -0.504684
v 0.014578 -1.110689 -0.522221
v 0.006819 -1.102828 -0.539867
v -0.011933 -1.099602 -0.547153
v -0.030684 -1.102828 -0.539867
v -0.038443 -1.110689 -0.522221
v -0.030561 -1.118502 -0.504684
v -0.011933 -1.208669 -0.537389
v 0.007024 -1.205484 -0.544514
v 0.015293 -1.197396 -0.562375
v 0.007298 -1.189205 -0.580434
v -0.011933 -1.185866 -0.587774
v -0.031163 -1.189205 -0.580434
v -0.039158 -1.197396 -0.562375
v -0.030889 -1.205484 -0.544514
v -0.011933 -1.214977 -0.523984
v 0.017634 -1.209840 -0.535213
v 0.029987 -1.197306 -0.562486
v 0.017662 -1.184713 -0.589769
v -0.011933 -1.179522 -0.601011
v -0.041527 -1.184713 -0.589768
v -0.053852 -1.197306 -0.562486
v -0.041499 -1.209840 -0.535213
v -0.011933 -1.236240 -0.538940
v 0.014475 -1.231684 -0.549016
v 0.025540 -1.220488 -0.573554
v 0.014481 -1.209216 -0.598063
v -0.011933 -1.204580 -0.608111
v -0.038346 -1.209216 -0.598062
v -0.049406 -1.220488 -0.573554
v -0.038340 -1.231684 -0.549016
v -0.011933 -1.243098 -0.550415
v 0.009423 -1.239384 -0.558603
v 0.018261 -1.230325 -0.578395
v 0.009326 -1.221225 -0.598076
v -0.011933 -1.217461 -0.606149
v -0.033191 -1.221225 -0.598076
v -0.042126 -1.230325 -0.578395
v -0.033288 -1.239384 -0.558603
v -0.011933 -1.241135 -0.566069
v -0.000901 -1.239193 -0.570274
v 0.003681 -1.234464 -0.580477
v -0.000950 -1.229740 -0.590630
v -0.011933 -1.227801 -0.594785
v -0.022915 -1.229740 -0.590630
v -0.027546 -1.234464 -0.580477
v -0.022964 -1.239193 -0.570274
v -0.011933 0.002370 -0.044040
v -0.001798 -0.001828 -0.044040
v 0.002400 -0.011963 -0.044040
v -0.001798 -0.022098 -0.044040
v -0.011933 -0.026296 -0.044040
v -0.022067 -0.022098 -0.044040
v -0.026265 -0.011963 -0.044040
v -0.022067 -0.001828 -0.044040
v -0.001798 -0.001828 -0.121470
v -0.011933 0.002370 -0.121470
v 0.002400 -0.011963 -0.121470
v -0.001798 -0.022098 -0.121470
v -0.011933 -0.026296 -0.121470
v -0.022067 -0.022098 -0.121470
v -0.026265 -0.011963 -0.121470
v -0.022067 -0.001828 -0.121470
v -0.011933 -0.294013 -0.169722
v -0.007106 -0.295686 -0.170771
v -0.004760 -0.300256 -0.173498
v -0.006848 -0.305092 -0.176297
v -0.011933 -0.307016 -0.177413
v -0.017017 -0.305092 -0.176297
v -0.019105 -0.300256 -0.173498
v -0.016759 -0.295686 -0.170771
v -0.006848 -0.274994 -0.219090
v -0.011933 -0.273069 -0.217975
v -0.004760 -0.279830 -0.221890
v -0.007106 -0.284400 -0.224617
v -0.011933 -0.286073 -0.225666
v -0.016759 -0.284400 -0.224617
v -0.019105 -0.279830 -0.221890
v -0.017017 -0.274994 -0.219090
v -0.077218 -0.049987 0.000000
v -0.077218 0.085953 0.000000
v 0.063212 -0.049987 0.000000
v 0.063212 0.085953 0.000000
vn 0.9995 0.0000 -0.0314
vn 0.0000 0.0000 1.0000
vn 0.0000 -0.9995 -0.0314
vn 0.0000 0.9995 -0.0314
vn 0.3912 -0.3954 -0.8310
vn 0.9263 -0.1657 -0.3383
vn 0.9267 0.1532 0.3431
vn 0.3917 0.3846 0.8358
vn -0.3917 0.3846 0.8358
vn -0.9267 0.1532 0.3431
vn 0.0000 0.9145 -0.4046
vn -0.9263 -0.1657 -0.3383
vn -0.3912 -0.3954 -0.8310
vn 0.8891 -0.4073 -0.2089
vn -0.1008 -0.9274 0.3603
vn -0.3795 0.1217 0.9172
vn -0.3737 -0.6404 -0.6709
vn 0.3737 -0.6404 -0.6709
vn 0.8926 -0.0951 0.4406
vn -0.8926 -0.0951 0.4406
vn 0.3795 0.1217 0.9172
vn -0.8891 -0.4073 -0.2089
vn -0.9351 -0.1537 -0.3193
vn -0.0782 -0.8436 0.5313
vn 0.0782 -0.8436 0.5313
vn 0.1008 -0.9274 0.3603
vn -0.0562 -0.9571 0.2842
vn -0.1239 -0.8941 0.4304
vn 0.1239 -0.8941 0.4304
vn 0.0562 -0.9571 0.2842
vn 0.0512 0.9628 -0.2652
vn -0.4172 0.3802 0.8254
vn 0.9337 0.1475 0.3262
vn 0.4181 -0.3873 -0.8217
vn -0.4181 -0.3873 -0.8217
vn -0.9337 0.1475 0.3262
vn 0.4172 0.3802 0.8254
vn 0.9351 -0.1537 -0.3193
vn -0.3846 -0.3839 -0.8395
vn 0.1976 0.8631 -0.4648
vn -0.1976 0.8631 -0.4648
vn -0.0512 0.9628 -0.2652
vn 0.1648 0.9312 -0.3252
vn 0.0928 0.8000 -0.5928
vn -0.0928 0.8000 -0.5928
vn -0.1648 0.9312 -0.3252
vn -0.9276 0.1631 0.3360
vn 0.3888 0.3930 0.8333
vn 0.9232 -0.1561 -0.3511
vn -0.9232 -0.1561 -0.3511
vn -0.3888 0.3930 0.8333
vn 0.9276 0.1631 0.3360
vn 0.3846 -0.3839 -0.8395
vn 0.0000 0.0000 -1.0000
vn 0.9239 0.3827 -0.0000
vn -0.9239 0.3827 -0.0000
vn -0.3827 -0.9239 0.0000
vn 0.9239 -0.3827 0.0000
vn 0.3827 0.9239 -0.0000
vn -0.3827 0.9239 -0.0000
vn -0.9239 -0.3827 0.0000
vn 0.3827 -0.9239 0.0000
vn 0.0000 -0.5077 -0.8615
vn 0.0000 0.5077 0.8615
vn 0.9254 0.3479 -0.1504
vn -0.9254 0.3479 -0.1504
vn -0.3871 -0.8463 0.3659
vn 0.9254 -0.3479 0.1504
vn 0.3871 0.8463 -0.3659
vn -0.3871 0.8463 -0.3659
vn -0.9254 -0.3479 0.1504
vn 0.3871 -0.8463 0.3659
vn -0.9995 0.0000 -0.0314
vn 0.9995 0.0000 0.0314
vn 0.0000 -0.9995 0.0314
vn 0.0000 0.9995 0.0314
vn 0.3912 -0.3954 0.8310
vn 0.9263 -0.1657 0.3383
vn 0.9267 0.1532 -0.3431
vn 0.3917 0.3846 -0.8358
vn -0.3917 0.3846 -0.8358
vn -0.9267 0.1532 -0.3431
vn 0.0000 0.9145 0.4046
vn -0.9263 -0.1657 0.3383
vn -0.3912 -0.3954 0.8310
vn 0.8891 -0.4073 0.2089
vn -0.1008 -0.9274 -0.3603
vn -0.3795 0.1217 -0.9172
vn -0.3737 -0.6404 0.6709
vn 0.3737 -0.6404 0.6709
vn 0.8926 -0.0951 -0.4406
vn -0.8926 -0.0951 -0.4406
vn 0.3795 0.1217 -0.9172
vn -0.8891 -0.4073 0.2089
vn -0.9351 -0.1537 0.3193
vn -0.0782 -0.8436 -0.5313
vn 0.0782 -0.8436 -0.5313
vn 0.1008 -0.9274 -0.3603
vn -0.0562 -0.9571 -0.2842
vn -0.1239 -0.8941 -0.4304
vn 0.1239 -0.8941 -0.4304
vn 0.0562 -0.9571 -0.2842
vn 0.0512 0.9628 0.2652
vn -0.4172 0.3802 -0.8254
vn 0.9337 0.1475 -0.3262
vn 0.4181 -0.3873 0.8217
vn -0.4181 -0.3873 0.8217
vn -0.9337 0.1475 -0.3262
vn 0.4172 0.3802 -0.8254
vn 0.9351 -0.1537 0.3193
vn -0.3846 -0.3839 0.8395
vn 0.1976 0.8631 0.4648
vn -0.1976 0.8631 0.4648
vn -0.0512 0.9628 0.2652
vn 0.1648 0.9312 0.3252
vn 0.0928 0.8000 0.5928
vn -0.0928 0.8000 0.5928
vn -0.1648 0.9312 0.3252
vn -0.9276 0.1631 -0.3360
vn 0.3888 0.3930 -0.8333
vn 0.9232 -0.1561 0.3511
vn -0.9232 -0.1561 0.3511
vn -0.3888 0.3930 -0.8333
vn 0.9276 0.1631 -0.3360
vn 0.3846 -0.3839 0.8395
vn 0.0000 -0.5077 0.8615
vn 0.0000 0.5077 -0.8615
vn 0.9254 0.3479 0.1504
vn -0.9254 0.3479 0.1504
vn -0.3871 -0.8463 -0.3659
vn 0.9254 -0.3479 -0.1504
vn 0.3871 0.8463 0.3659
vn -0.3871 0.8463 0.3659
vn -0.9254 -0.3479 -0.1504
vn 0.3871 -0.8463 -0.3659
vn -0.9995 0.0000 0.0314
vn 0.0061 0.9026 -0.4305
vn -0.9125 -0.3048 -0.2728
vn -0.0078 0.9077 -0.4196
vn 0.0048 0.9060 -0.4233
vn -0.0048 0.9060 -0.4233
vn 0.0078 0.9077 -0.4196
vn -0.0061 0.9026 -0.4305
vn 0.0021 0.9092 -0.4164
vn -0.0021 0.9092 -0.4164
vn -0.7903 -0.3360 0.5125
vn -0.3822 0.2516 0.8892
vn 0.9143 0.0180 0.4045
vn 0.3801 -0.5324 -0.7563
vn -0.3801 -0.5324 -0.7563
vn -0.9143 0.0180 0.4045
vn 0.3822 0.2516 0.8892
vn 0.9125 -0.3048 -0.2728
vn 0.1242 -0.9844 0.1245
vn 0.3299 -0.1414 0.9334
vn 0.7866 -0.6132 -0.0730
vn -0.7866 -0.6132 -0.0730
vn -0.3299 -0.1414 0.9334
vn 0.7903 -0.3360 0.5125
vn 0.3256 -0.8125 -0.4835
vn -0.3256 -0.8125 -0.4835
vn 0.0000 -0.9070 0.4212
vn -0.1242 -0.9844 0.1245
vn -0.3003 -0.8061 0.5100
vn 0.1236 -0.7338 0.6680
vn 0.3010 -0.9104 0.2838
vn -0.3010 -0.9104 0.2838
vn -0.1236 -0.7338 0.6680
vn 0.3003 -0.8060 0.5100
vn 0.0061 0.9026 0.4305
vn -0.9125 -0.3048 0.2728
vn -0.0078 0.9077 0.4196
vn 0.0048 0.9060 0.4233
vn -0.0048 0.9060 0.4233
vn 0.0078 0.9077 0.4196
vn -0.0061 0.9026 0.4305
vn 0.0021 0.9092 0.4164
vn -0.0021 0.9092 0.4164
vn -0.7903 -0.3360 -0.5125
vn -0.3822 0.2516 -0.8892
vn 0.9143 0.0180 -0.4045
vn 0.3801 -0.5324 0.7563
vn -0.3801 -0.5324 0.7563
vn -0.9143 0.0180 -0.4045
vn 0.3822 0.2516 -0.8892
vn 0.9125 -0.3048 0.2728
vn 0.1242 -0.9844 -0.1245
vn 0.3299 -0.1414 -0.9334
vn 0.7866 -0.6132 0.0730
vn -0.7866 -0.6132 0.0730
vn -0.3299 -0.1414 -0.9334
vn 0.7903 -0.3360 -0.5124
vn 0.3256 -0.8125 0.4835
vn -0.3256 -0.8125 0.4835
vn -0.0000 -0.9070 -0.4212
vn -0.1242 -0.9844 -0.1245
vn -0.3003 -0.8061 -0.5100
vn 0.1236 -0.7338 -0.6680
vn 0.3010 -0.9104 -0.2838
vn -0.3010 -0.9104 -0.2838
vn -0.1236 -0.7338 -0.6680
vn 0.3003 -0.8060 -0.5100
usemtl DarkMetal
s off
f 251//1 252//1 4//1 3//1
f 3//2 4//2 2//2 1//2
f 249//3 251//3 3//3 1//3
f 252//4 250//4 2//4 4//4
f 5//5 6//5 8//5 7//5
f 7//6 8//6 10//6 9//6
f 9//7 10//7 12//7 11//7
f 11//8 12//8 14//8 13//8
f 13//9 14//9 16//9 15//9
f 15//10 16//10 18//10 17//10
f 8//11 6//11 20//11 18//11 16//11 14//11 12//11 10//11
f 17//12 18//12 20//12 19//12
f 19//13 20//13 6//13 5//13
f 7//14 9//14 23//14 22//14
f 23//15 24//15 32//15 31//15
f 13//16 15//16 26//16 25//16
f 19//17 5//17 21//17 28//17
f 5//18 7//18 22//18 21//18
f 9//19 11//19 24//19 23//19
f 15//20 17//20 27//20 26//20
f 11//21 13//21 25//21 24//21
f 17//22 19//22 28//22 27//22
f 35//23 36//23 44//23 43//23
f 21//24 22//24 30//24 29//24
f 28//25 21//25 29//25 36//25
f 26//26 27//26 35//26 34//26
f 24//27 25//27 33//27 32//27
f 22//28 23//28 31//28 30//28
f 27//29 28//29 36//29 35//29
f 25//30 26//30 34//30 33//30
f 40//31 41//31 49//31 48//31
f 33//32 34//32 42//32 41//32
f 31//33 32//33 40//33 39//33
f 29//34 30//34 38//34 37//34
f 36//35 29//35 37//35 44//35
f 34//36 35//36 43//36 42//36
f 32//37 33//37 41//37 40//37
f 30//38 31//38 39//38 38//38
f 52//39 45//39 53//39 60//39
f 38//40 39//40 47//40 46//40
f 43//41 44//41 52//41 51//41
f 41//42 42//42 50//42 49//42
f 39//43 40//43 48//43 47//43
f 37//44 38//44 46//44 45//44
f 44//45 37//45 45//45 52//45
f 42//46 43//46 51//46 50//46
f 50//47 51//47 59//47 58//47
f 48//48 49//48 57//48 56//48
f 46//49 47//49 55//49 54//49
f 51//50 52//50 60//50 59//50
f 49//51 50//51 58//51 57//51
f 47//52 48//52 56//52 55//52
f 45//53 46//53 54//53 53//53
f 94//54 95//54 96//54 97//54 98//54 99//54 100//54 93//54
f 101//2 102//2 108//2 107//2 106//2 105//2 104//2 103//2
f 95//55 94//55 101//55 103//55
f 100//56 99//56 107//56 108//56
f 98//57 97//57 105//57 106//57
f 96//58 95//58 103//58 104//58
f 94//59 93//59 102//59 101//59
f 93//60 100//60 108//60 102//60
f 99//61 98//61 106//61 107//61
f 97//62 96//62 104//62 105//62
f 110//63 111//63 112//63 113//63 114//63 115//63 116//63 109//63
f 117//64 118//64 124//64 123//64 122//64 121//64 120//64 119//64
f 111//65 110//65 117//65 119//65
f 116//66 115//66 123//66 124//66
f 114//67 113//67 121//67 122//67
f 112//68 111//68 119//68 120//68
f 110//69 109//69 118//69 117//69
f 109//70 116//70 124//70 118//70
f 115//71 114//71 122//71 123//71
f 113//72 112//72 120//72 121//72
f 1//73 2//73 250//73 249//73
f 251//74 127//74 128//74 252//74
f 127//54 125//54 126//54 128//54
f 249//75 125//75 127//75 251//75
f 252//76 128//76 126//76 250//76
f 129//77 131//77 132//77 130//77
f 131//78 133//78 134//78 132//78
f 133//79 135//79 136//79 134//79
f 135//80 137//80 138//80 136//80
f 137//81 139//81 140//81 138//81
f 139//82 141//82 142//82 140//82
f 132//83 134//83 136//83 138//83 140//83 142//83 144//83 130//83
f 141//84 143//84 144//84 142//84
f 143//85 129//85 130//85 144//85
f 131//86 146//86 147//86 133//86
f 147//87 155//87 156//87 148//87
f 137//88 149//88 150//88 139//88
f 143//89 152//89 145//89 129//89
f 129//90 145//90 146//90 131//90
f 133//91 147//91 148//91 135//91
f 139//92 150//92 151//92 141//92
f 135//93 148//93 149//93 137//93
f 141//94 151//94 152//94 143//94
f 159//95 167//95 168//95 160//95
f 145//96 153//96 154//96 146//96
f 152//97 160//97 153//97 145//97
f 150//98 158//98 159//98 151//98
f 148//99 156//99 157//99 149//99
f 146//100 154//100 155//100 147//100
f 151//101 159//101 160//101 152//101
f 149//102 157//102 158//102 150//102
f 164//103 172//103 173//103 165//103
f 157//104 165//104 166//104 158//104
f 155//105 163//105 164//105 156//105
f 153//106 161//106 162//106 154//106
f 160//107 168//107 161//107 153//107
f 158//108 166//108 167//108 159//108
f 156//109 164//109 165//109 157//109
f 154//110 162//110 163//110 155//110
f 176//111 184//111 177//111 169//111
f 162//112 170//112 171//112 163//112
f 167//113 175//113 176//113 168//113
f 165//114 173//114 174//114 166//114
f 163//115 171//115 172//115 164//115
f 161//116 169//116 170//116 162//116
f 168//117 176//117 169//117 161//117
f 166//118 174//118 175//118 167//118
f 174//119 182//119 183//119 175//119
f 172//120 180//120 181//120 173//120
f 170//121 178//121 179//121 171//121
f 175//122 183//122 184//122 176//122
f 173//123 181//123 182//123 174//123
f 171//124 179//124 180//124 172//124
f 169//125 177//125 178//125 170//125
f 218//2 217//2 224//2 223//2 222//2 221//2 220//2 219//2
f 225//54 227//54 228//54 229//54 230//54 231//54 232//54 226//54
f 219//55 227//55 225//55 218//55
f 224//56 232//56 231//56 223//56
f 222//57 230//57 229//57 221//57
f 220//58 228//58 227//58 219//58
f 218//59 225//59 226//59 217//59
f 217//60 226//60 232//60 224//60
f 223//61 231//61 230//61 222//61
f 221//62 229//62 228//62 220//62
f 234//126 233//126 240//126 239//126 238//126 237//126 236//126 235//126
f 241//127 243//127 244//127 245//127 246//127 247//127 248//127 242//127
f 235//128 243//128 241//128 234//128
f 240//129 248//129 247//129 239//129
f 238//130 246//130 245//130 237//130
f 236//131 244//131 243//131 235//131
f 234//132 241//132 242//132 233//132
f 233//133 242//133 248//133 240//133
f 239//134 247//134 246//134 238//134
f 237//135 245//135 244//135 236//135
f 125//136 249//136 250//136 126//136
usemtl Black
f 57//137 58//137 66//137 65//137
f 67//138 68//138 76//138 75//138
f 55//139 56//139 64//139 63//139
f 53//140 54//140 62//140 61//140
f 60//141 53//141 61//141 68//141
f 58//142 59//142 67//142 66//142
f 56//143 57//143 65//143 64//143
f 54//144 55//144 63//144 62//144
f 59//145 60//145 68//145 67//145
f 74//146 75//146 83//146 82//146
f 65//147 66//147 74//147 73//147
f 63//148 64//148 72//148 71//148
f 61//149 62//149 70//149 69//149
f 68//150 61//150 69//150 76//150
f 66//151 67//151 75//151 74//151
f 64//152 65//152 73//152 72//152
f 62//153 63//153 71//153 70//153
f 77//154 78//154 86//154 85//154
f 72//155 73//155 81//155 80//155
f 70//156 71//156 79//156 78//156
f 75//157 76//157 84//157 83//157
f 73//158 74//158 82//158 81//158
f 71//159 72//159 80//159 79//159
f 69//160 70//160 78//160 77//160
f 76//161 69//161 77//161 84//161
f 85//162 86//162 87//162 88//162 89//162 90//162 91//162 92//162
f 84//163 77//163 85//163 92//163
f 82//164 83//164 91//164 90//164
f 80//165 81//165 89//165 88//165
f 78//166 79//166 87//166 86//166
f 83//167 84//167 92//167 91//167
f 81//168 82//168 90//168 89//168
f 79//169 80//169 88//169 87//169
f 181//170 189//170 190//170 182//170
f 191//171 199//171 200//171 192//171
f 179//172 187//172 188//172 180//172
f 177//173 185//173 186//173 178//173
f 184//174 192//174 185//174 177//174
f 182//175 190//175 191//175 183//175
f 180//176 188//176 189//176 181//176
f 178//177 186//177 187//177 179//177
f 183//178 191//178 192//178 184//178
f 198//179 206//179 207//179 199//179
f 189//180 197//180 198//180 190//180
f 187//181 195//181 196//181 188//181
f 185//182 193//182 194//182 186//182
f 192//183 200//183 193//183 185//183
f 190//184 198//184 199//184 191//184
f 188//185 196//185 197//185 189//185
f 186//186 194//186 195//186 187//186
f 201//187 209//187 210//187 202//187
f 196//188 204//188 205//188 197//188
f 194//189 202//189 203//189 195//189
f 199//190 207//190 208//190 200//190
f 197//191 205//191 206//191 198//191
f 195//192 203//192 204//192 196//192
f 193//193 201//193 202//193 194//193
f 200//194 208//194 201//194 193//194
f 209//195 216//195 215//195 214//195 213//195 212//195 211//195 210//195
f 208//196 216//196 209//196 201//196
f 206//197 214//197 215//197 207//197
f 204//198 212//198 213//198 205//198
f 202//199 210//199 211//199 203//199
f 207//200 215//200 216//200 208//200
f 205//201 213//201 214//201 206//201
f 203//202 211//202 212//202 204//202
