# Blender v2.79 (sub 0) OBJ File: 'Silencer_Short.blend'
# www.blender.org
mtllib Silencer_Short.mtl
o Silencer_Short_Cylinder.056
v 0.778940 0.000000 -0.150697
v 0.778940 -0.088577 -0.121917
v 0.778940 -0.143321 -0.046568
v 0.778940 -0.143321 0.046568
v 0.778940 -0.088577 0.121916
v 0.778940 0.000000 0.150697
v 0.778940 0.088578 0.121916
v 0.778940 0.143322 0.046568
v 0.778940 0.143322 -0.046568
v 0.778940 0.088578 -0.121917
v 0.036366 -0.000000 -0.052520
v 0.036366 -0.030871 -0.042489
v 0.036366 -0.049949 -0.016229
v 0.036366 -0.049949 0.016230
v 0.036366 -0.030870 0.042489
v 0.036366 -0.000000 0.052520
v 0.036366 0.030870 0.042489
v 0.036366 0.049949 0.016230
v 0.036366 0.049949 -0.016229
v 0.036366 0.030870 -0.042489
v 0.778940 -0.024436 -0.033634
v 0.778940 0.000000 -0.041574
v 0.778940 -0.039539 -0.012847
v 0.778940 -0.039539 0.012847
v 0.778940 -0.024436 0.033634
v 0.778940 0.000000 0.041574
v 0.778940 0.024437 0.033634
v 0.778940 0.039539 0.012847
v 0.778940 0.039539 -0.012847
v 0.778940 0.024437 -0.033634
v 0.351772 -0.024436 -0.033634
v 0.351772 0.000000 -0.041574
v 0.351772 -0.039539 -0.012847
v 0.351772 -0.039539 0.012847
v 0.351772 -0.024436 0.033634
v 0.351772 0.000000 0.041574
v 0.351772 0.024437 0.033634
v 0.351772 0.039539 0.012847
v 0.351772 0.039539 -0.012847
v 0.351772 0.024437 -0.033634
v 0.712306 0.000000 -0.150697
v 0.712306 -0.088577 -0.121917
v 0.712306 -0.143321 -0.046568
v 0.712306 -0.143321 0.046568
v 0.712306 -0.088577 0.121916
v 0.712306 0.000000 0.150697
v 0.712306 0.088578 0.121916
v 0.712306 0.143322 0.046568
v 0.712306 0.143322 -0.046568
v 0.712306 0.088578 -0.121917
v 0.772876 -0.092934 -0.127913
v 0.772876 0.000000 -0.158109
v 0.718720 0.000000 -0.158109
v 0.772876 -0.150370 -0.048859
v 0.772876 -0.150370 0.048858
v 0.772876 -0.092934 0.127913
v 0.772876 0.000000 0.158109
v 0.772876 0.092934 0.127913
v 0.772876 0.150371 0.048858
v 0.772876 0.150371 -0.048859
v 0.772876 0.092934 -0.127913
v 0.718720 -0.092934 -0.127913
v 0.718720 -0.150370 -0.048859
v 0.718720 -0.150370 0.048858
v 0.718720 -0.092934 0.127913
v 0.718720 0.000000 0.158109
v 0.718720 0.092934 0.127913
v 0.718720 0.150371 0.048858
v 0.718720 0.150371 -0.048859
v 0.718720 0.092934 -0.127913
v 0.035953 -0.000000 -0.145928
v 0.035953 -0.085774 -0.118058
v 0.035953 -0.138786 -0.045094
v 0.035953 -0.138786 0.045094
v 0.035953 -0.085774 0.118058
v 0.035953 -0.000000 0.145928
v 0.035953 0.085774 0.118058
v 0.035953 0.138785 0.045094
v 0.035953 0.138785 -0.045094
v 0.035953 0.085774 -0.118058
v -0.096930 -0.000000 -0.052520
v -0.096930 -0.030871 -0.042489
v -0.096930 -0.049949 -0.016229
v -0.096930 -0.049949 0.016230
v -0.096930 -0.030870 0.042489
v -0.096930 -0.000000 0.052520
v -0.096930 0.030870 0.042489
v -0.096930 0.049949 0.016230
v -0.096930 0.049949 -0.016229
v -0.096930 0.030870 -0.042489
v 0.092793 -0.000000 -0.150697
v 0.092793 -0.088578 -0.121916
v 0.092793 0.088577 -0.121916
v 0.092793 -0.143322 -0.046568
v 0.092793 -0.143321 0.046568
v 0.092793 -0.088578 0.121917
v 0.092793 -0.000000 0.150697
v 0.092793 0.088577 0.121917
v 0.092793 0.143321 0.046568
v 0.092793 0.143321 -0.046568
v 0.035953 -0.000000 -0.160461
v 0.068323 -0.000000 -0.165705
v 0.068323 -0.097399 -0.134058
v 0.035953 -0.094317 -0.129816
v 0.068323 -0.157595 -0.051206
v 0.035953 -0.152608 -0.049585
v 0.068323 -0.157595 0.051206
v 0.035953 -0.152608 0.049585
v 0.068323 -0.097399 0.134059
v 0.035953 -0.094317 0.129816
v 0.068323 -0.000000 0.165705
v 0.035953 -0.000000 0.160461
v 0.068323 0.097399 0.134058
v 0.035953 0.094316 0.129816
v 0.068323 0.157595 0.051206
v 0.035953 0.152607 0.049585
v 0.068323 0.157595 -0.051206
v 0.035953 0.152607 -0.049585
v 0.068323 0.097399 -0.134058
v 0.035953 0.094316 -0.129816
v 0.092793 -0.097399 -0.134058
v 0.092793 -0.157595 -0.051206
v 0.092793 -0.157595 0.051206
v 0.092793 -0.097399 0.134059
v 0.092793 -0.000000 0.165705
v 0.092793 0.097399 0.134058
v 0.092793 0.157595 0.051206
v 0.092793 0.157595 -0.051206
v 0.092793 -0.000000 -0.165705
v 0.092793 0.097399 -0.134058
vn 0.7581 -0.5276 0.3833
vn -0.7396 -0.5445 0.3956
vn 0.7581 0.2015 0.6202
vn -0.7396 -0.2080 0.6401
vn -0.7396 0.2080 0.6401
vn 0.7581 -0.2015 -0.6203
vn 0.7581 0.6522 -0.0000
vn 0.7581 -0.6522 -0.0000
vn 1.0000 0.0000 0.0000
vn -0.7396 0.5445 0.3956
vn 0.7581 0.2015 -0.6203
vn -0.0000 0.8090 0.5878
vn 0.0000 0.3090 0.9511
vn 0.0000 -0.3090 0.9511
vn -0.0000 0.3090 -0.9511
vn 0.0000 -0.8090 0.5878
vn 0.0000 -1.0000 0.0000
vn 0.0000 -0.8090 -0.5878
vn -0.0000 0.8090 -0.5878
vn -0.0000 1.0000 0.0000
vn 0.0000 -0.3090 -0.9511
vn -1.0000 -0.0014 0.0044
vn -1.0000 -0.0038 0.0027
vn -1.0000 -0.0046 0.0000
vn -1.0000 -0.0038 -0.0027
vn -1.0000 -0.0014 -0.0044
vn -1.0000 0.0014 -0.0044
vn -1.0000 0.0038 -0.0027
vn -1.0000 0.0046 0.0000
vn -1.0000 0.0038 0.0027
vn -1.0000 0.0014 0.0044
vn 0.7581 0.5276 -0.3833
vn -0.7396 -0.6730 0.0000
vn -0.7396 0.2080 -0.6401
vn 0.7581 -0.5276 -0.3833
vn -0.7396 -0.5445 -0.3956
vn 0.7581 0.5276 0.3833
vn -0.7396 0.5445 -0.3956
vn -0.7396 -0.2080 -0.6401
vn 0.7581 -0.2015 0.6202
vn -0.7396 0.6730 0.0000
vn -1.0000 -0.0000 0.0000
vn -0.1523 -0.3054 -0.9400
vn -0.1523 -0.7996 -0.5809
vn -0.1523 -0.9883 0.0000
vn -0.1523 -0.7996 0.5809
vn -0.1523 -0.3054 0.9400
vn -0.1523 0.3054 0.9400
vn -0.1523 0.7996 0.5809
vn -0.1523 0.9883 0.0000
vn -0.1523 0.7996 -0.5809
vn -0.1523 0.3054 -0.9400
usemtl Black
s off
f 4//1 5//1 56//1 55//1
f 45//2 44//2 64//2 65//2
f 6//3 7//3 58//3 57//3
f 46//4 45//4 65//4 66//4
f 47//5 46//5 66//5 67//5
f 1//6 2//6 51//6 52//6
f 8//7 9//7 60//7 59//7
f 3//8 4//8 55//8 54//8
f 9//9 29//9 30//9 10//9
f 48//10 47//10 67//10 68//10
f 10//11 1//11 52//11 61//11
f 98//12 47//12 48//12 99//12
f 97//13 46//13 47//13 98//13
f 96//14 45//14 46//14 97//14
f 93//15 50//15 41//15 91//15
f 95//16 44//16 45//16 96//16
f 94//17 43//17 44//17 95//17
f 92//18 42//18 43//18 94//18
f 100//19 49//19 50//19 93//19
f 99//20 48//20 49//20 100//20
f 8//9 28//9 29//9 9//9
f 7//9 27//9 28//9 8//9
f 6//9 26//9 27//9 7//9
f 5//9 25//9 26//9 6//9
f 2//9 21//9 23//9 3//9
f 4//9 24//9 25//9 5//9
f 3//9 23//9 24//9 4//9
f 10//9 30//9 22//9 1//9
f 1//9 22//9 21//9 2//9
f 30//16 29//16 39//16 40//16
f 31//9 32//9 40//9 39//9 38//9 37//9 36//9 35//9 34//9 33//9
f 27//21 26//21 36//21 37//21
f 24//20 23//20 33//20 34//20
f 22//14 30//14 40//14 32//14
f 28//18 27//18 37//18 38//18
f 25//19 24//19 34//19 35//19
f 21//13 22//13 32//13 31//13
f 29//17 28//17 38//17 39//17
f 26//15 25//15 35//15 36//15
f 23//12 21//12 31//12 33//12
f 80//22 71//22 11//22 20//22
f 79//23 80//23 20//23 19//23
f 78//24 79//24 19//24 18//24
f 77//25 78//25 18//25 17//25
f 76//26 77//26 17//26 16//26
f 75//27 76//27 16//27 15//27
f 74//28 75//28 15//28 14//28
f 73//29 74//29 14//29 13//29
f 72//30 73//30 13//30 12//30
f 71//31 72//31 12//31 11//31
f 53//21 52//21 51//21 62//21
f 62//18 51//18 54//18 63//18
f 63//17 54//17 55//17 64//17
f 64//16 55//16 56//16 65//16
f 65//14 56//14 57//14 66//14
f 66//13 57//13 58//13 67//13
f 67//12 58//12 59//12 68//12
f 68//20 59//20 60//20 69//20
f 69//19 60//19 61//19 70//19
f 70//15 61//15 52//15 53//15
f 9//32 10//32 61//32 60//32
f 44//33 43//33 63//33 64//33
f 41//34 50//34 70//34 53//34
f 2//35 3//35 54//35 51//35
f 43//36 42//36 62//36 63//36
f 7//37 8//37 59//37 58//37
f 50//38 49//38 69//38 70//38
f 42//39 41//39 53//39 62//39
f 5//40 6//40 57//40 56//40
f 49//41 48//41 68//41 69//41
f 79//42 78//42 116//42 118//42
f 74//42 73//42 106//42 108//42
f 92//9 94//9 122//9 121//9
f 100//9 93//9 130//9 128//9
f 76//42 75//42 110//42 112//42
f 98//9 99//9 127//9 126//9
f 99//9 100//9 128//9 127//9
f 71//42 80//42 120//42 101//42
f 97//9 98//9 126//9 125//9
f 78//42 77//42 114//42 116//42
f 91//21 41//21 42//21 92//21
f 17//12 18//12 88//12 87//12
f 14//16 15//16 85//16 84//16
f 11//21 12//21 82//21 81//21
f 18//20 19//20 89//20 88//20
f 15//14 16//14 86//14 85//14
f 12//18 13//18 83//18 82//18
f 19//19 20//19 90//19 89//19
f 16//13 17//13 87//13 86//13
f 13//17 14//17 84//17 83//17
f 20//15 11//15 81//15 90//15
f 73//42 72//42 104//42 106//42
f 91//9 92//9 121//9 129//9
f 96//9 97//9 125//9 124//9
f 80//42 79//42 118//42 120//42
f 75//42 74//42 108//42 110//42
f 93//9 91//9 129//9 130//9
f 95//9 96//9 124//9 123//9
f 77//42 76//42 112//42 114//42
f 72//42 71//42 101//42 104//42
f 94//9 95//9 123//9 122//9
f 102//43 103//43 104//43 101//43
f 103//44 105//44 106//44 104//44
f 105//45 107//45 108//45 106//45
f 107//46 109//46 110//46 108//46
f 109//47 111//47 112//47 110//47
f 111//48 113//48 114//48 112//48
f 113//49 115//49 116//49 114//49
f 115//50 117//50 118//50 116//50
f 117//51 119//51 120//51 118//51
f 119//52 102//52 101//52 120//52
f 102//21 129//21 121//21 103//21
f 115//20 127//20 128//20 117//20
f 117//19 128//19 130//19 119//19
f 103//18 121//18 122//18 105//18
f 105//17 122//17 123//17 107//17
f 107//16 123//16 124//16 109//16
f 119//15 130//15 129//15 102//15
f 109//14 124//14 125//14 111//14
f 111//13 125//13 126//13 113//13
f 113//12 126//12 127//12 115//12
