# Blender v2.79 (sub 0) OBJ File: 'Silencer_2.blend'
# www.blender.org
mtllib Silencer_2.mtl
o Silencer_2_Cylinder.008
v 1.587633 0.000000 -0.143183
v 1.587633 -0.084160 -0.115837
v 1.587633 -0.136174 -0.044246
v 1.587633 -0.136174 0.044246
v 1.587633 -0.084160 0.115837
v 1.587633 0.000000 0.143182
v 1.587633 0.084161 0.115837
v 1.587633 0.136175 0.044246
v 1.587633 0.136175 -0.044246
v 1.587633 0.084161 -0.115837
v 0.056543 -0.000000 -0.049901
v 0.056543 -0.029331 -0.040370
v 0.056543 -0.047459 -0.015420
v 0.056543 -0.047459 0.015420
v 0.056543 -0.029331 0.040371
v 0.056543 -0.000000 0.049901
v 0.056543 0.029331 0.040371
v 0.056543 0.047458 0.015420
v 0.056543 0.047458 -0.015420
v 0.056543 0.029331 -0.040370
v 1.587633 -0.023218 -0.031957
v 1.587633 0.000000 -0.039501
v 1.587633 -0.037567 -0.012207
v 1.587633 -0.037567 0.012206
v 1.587633 -0.023218 0.031957
v 1.587633 0.000000 0.039501
v 1.587633 0.023218 0.031957
v 1.587633 0.037568 0.012206
v 1.587633 0.037568 -0.012207
v 1.587633 0.023218 -0.031957
v 1.181765 -0.023218 -0.031957
v 1.181765 0.000000 -0.039501
v 1.181765 -0.037567 -0.012207
v 1.181765 -0.037567 0.012206
v 1.181765 -0.023218 0.031957
v 1.181765 0.000000 0.039501
v 1.181765 0.023218 0.031957
v 1.181765 0.037568 0.012206
v 1.181765 0.037568 -0.012207
v 1.181765 0.023218 -0.031957
v 1.524321 0.000000 -0.143183
v 1.524321 -0.084160 -0.115837
v 1.524321 -0.136174 -0.044246
v 1.524321 -0.136174 0.044246
v 1.524321 -0.084160 0.115837
v 1.524321 0.000000 0.143182
v 1.524321 0.084161 0.115837
v 1.524321 0.136175 0.044246
v 1.524321 0.136175 -0.044246
v 1.524321 0.084161 -0.115837
v 1.581871 -0.088300 -0.121535
v 1.581871 0.000000 -0.150225
v 1.530416 0.000000 -0.150225
v 1.581871 -0.142872 -0.046422
v 1.581871 -0.142872 0.046422
v 1.581871 -0.088300 0.121534
v 1.581871 0.000000 0.150225
v 1.581871 0.088300 0.121534
v 1.581871 0.142872 0.046422
v 1.581871 0.142872 -0.046422
v 1.581871 0.088300 -0.121535
v 1.530416 -0.088300 -0.121535
v 1.530416 -0.142872 -0.046422
v 1.530416 -0.142872 0.046422
v 1.530416 -0.088300 0.121534
v 1.530416 0.000000 0.150225
v 1.530416 0.088300 0.121534
v 1.530416 0.142872 0.046422
v 1.530416 0.142872 -0.046422
v 1.530416 0.088300 -0.121535
v 0.056151 -0.000000 -0.138651
v 0.056151 -0.081497 -0.112171
v 0.056151 -0.131865 -0.042845
v 0.056151 -0.131865 0.042846
v 0.056151 -0.081497 0.112171
v 0.056151 -0.000000 0.138651
v 0.056151 0.081497 0.112171
v 0.056151 0.131865 0.042846
v 0.056151 0.131865 -0.042845
v 0.056151 0.081497 -0.112171
v -0.070106 -0.000000 -0.049901
v -0.070106 -0.029331 -0.040370
v -0.070106 -0.047459 -0.015420
v -0.070106 -0.047459 0.015420
v -0.070106 -0.029331 0.040371
v -0.070106 -0.000000 0.049901
v -0.070106 0.029331 0.040371
v -0.070106 0.047458 0.015420
v -0.070106 0.047458 -0.015420
v -0.070106 0.029331 -0.040370
v 0.529616 -0.000000 -0.143182
v 0.529616 -0.084161 -0.115837
v 0.529616 0.084160 -0.115837
v 0.529616 -0.136175 -0.044246
v 0.529616 -0.136175 0.044246
v 0.529616 -0.084161 0.115837
v 0.529616 -0.000000 0.143183
v 0.529616 0.084160 0.115837
v 0.529616 0.136174 0.044246
v 0.529616 0.136174 -0.044246
v 0.056151 -0.000000 -0.152459
v 0.086907 -0.000000 -0.157442
v 0.086907 -0.092542 -0.127373
v 0.056151 -0.089614 -0.123342
v 0.086907 -0.149737 -0.048652
v 0.056151 -0.144998 -0.047112
v 0.086907 -0.149737 0.048652
v 0.056151 -0.144998 0.047113
v 0.086907 -0.092542 0.127374
v 0.056151 -0.089614 0.123342
v 0.086907 -0.000000 0.157442
v 0.056151 -0.000000 0.152460
v 0.086907 0.092542 0.127374
v 0.056151 0.089613 0.123342
v 0.086907 0.149736 0.048652
v 0.056151 0.144997 0.047113
v 0.086907 0.149736 -0.048652
v 0.056151 0.144997 -0.047112
v 0.086907 0.092542 -0.127373
v 0.056151 0.089613 -0.123342
v 0.491704 -0.092542 -0.127373
v 0.491704 -0.149737 -0.048652
v 0.491704 -0.149737 0.048652
v 0.491704 -0.092542 0.127374
v 0.491704 -0.000000 0.157442
v 0.491704 0.092542 0.127374
v 0.491704 0.149736 0.048652
v 0.491704 0.149736 -0.048652
v 0.491704 -0.000000 -0.157442
v 0.491704 0.092542 -0.127373
v 0.451389 -0.092542 -0.127373
v 0.451389 -0.149737 -0.048652
v 0.451389 -0.149737 0.048652
v 0.451389 -0.092542 0.127374
v 0.451389 -0.000000 0.157442
v 0.451389 0.092542 0.127374
v 0.451389 0.149736 0.048652
v 0.451389 0.149736 -0.048652
v 0.451389 -0.000000 -0.157442
v 0.451389 0.092542 -0.127373
v 0.281379 -0.092542 -0.127373
v 0.281379 -0.149737 -0.048652
v 0.281379 -0.149737 0.048652
v 0.281379 -0.092542 0.127374
v 0.281379 -0.000000 0.157442
v 0.281379 0.092542 0.127374
v 0.281379 0.149736 0.048652
v 0.281379 0.149736 -0.048652
v 0.281379 -0.000000 -0.157442
v 0.281379 0.092542 -0.127373
v 0.305666 -0.000000 -0.157442
v 0.329953 -0.000000 -0.157442
v 0.354240 -0.000000 -0.157442
v 0.378527 -0.000000 -0.157442
v 0.402814 -0.000000 -0.157442
v 0.427102 -0.000000 -0.157442
v 0.305666 0.092542 -0.127373
v 0.329953 0.092542 -0.127373
v 0.354240 0.092542 -0.127373
v 0.378527 0.092542 -0.127373
v 0.402814 0.092542 -0.127373
v 0.427102 0.092542 -0.127373
v 0.427102 -0.092542 -0.127373
v 0.402815 -0.092542 -0.127373
v 0.378527 -0.092542 -0.127373
v 0.354240 -0.092542 -0.127373
v 0.329953 -0.092542 -0.127373
v 0.305666 -0.092542 -0.127373
v 0.427102 -0.149737 -0.048652
v 0.402815 -0.149737 -0.048652
v 0.378527 -0.149737 -0.048652
v 0.354240 -0.149737 -0.048652
v 0.329953 -0.149737 -0.048652
v 0.305666 -0.149737 -0.048652
v 0.427102 -0.149737 0.048652
v 0.402815 -0.149737 0.048652
v 0.378527 -0.149737 0.048652
v 0.354240 -0.149737 0.048652
v 0.329953 -0.149737 0.048652
v 0.305666 -0.149737 0.048652
v 0.427102 -0.092542 0.127374
v 0.402815 -0.092542 0.127374
v 0.378527 -0.092542 0.127374
v 0.354240 -0.092542 0.127374
v 0.329953 -0.092542 0.127374
v 0.305666 -0.092542 0.127374
v 0.427102 -0.000000 0.157442
v 0.402815 -0.000000 0.157442
v 0.378527 -0.000000 0.157442
v 0.354240 -0.000000 0.157442
v 0.329953 -0.000000 0.157442
v 0.305666 -0.000000 0.157442
v 0.427102 0.092542 0.127374
v 0.402815 0.092542 0.127374
v 0.378527 0.092542 0.127374
v 0.354240 0.092542 0.127374
v 0.329953 0.092542 0.127374
v 0.305666 0.092542 0.127374
v 0.427102 0.149736 0.048652
v 0.402815 0.149736 0.048652
v 0.378527 0.149736 0.048652
v 0.354240 0.149736 0.048652
v 0.329953 0.149736 0.048652
v 0.305666 0.149736 0.048652
v 0.427102 0.149736 -0.048652
v 0.402815 0.149736 -0.048652
v 0.378527 0.149736 -0.048652
v 0.354240 0.149736 -0.048652
v 0.329953 0.149736 -0.048652
v 0.305666 0.149736 -0.048652
v 0.423245 -0.000000 -0.147442
v 0.445989 -0.000000 -0.147442
v 0.423245 0.086664 -0.119283
v 0.445989 0.086664 -0.119283
v 0.445989 -0.086664 -0.119283
v 0.445989 0.140225 0.045562
v 0.445989 0.140225 -0.045562
v 0.445990 -0.140226 -0.045562
v 0.445990 -0.140226 0.045562
v 0.445990 -0.086664 0.119283
v 0.445990 -0.000000 0.147442
v 0.445989 0.086664 0.119283
v 0.309523 -0.086664 -0.119283
v 0.286778 -0.086664 -0.119283
v 0.309523 -0.140226 -0.045562
v 0.286778 -0.140226 -0.045562
v 0.309523 -0.140226 0.045562
v 0.286778 -0.140226 0.045562
v 0.309523 -0.086664 0.119283
v 0.286778 -0.086664 0.119283
v 0.309523 -0.000000 0.147442
v 0.286778 -0.000000 0.147442
v 0.309523 0.086664 0.119283
v 0.286778 0.086664 0.119283
v 0.309523 0.140225 0.045562
v 0.286778 0.140225 0.045562
v 0.309523 0.140225 -0.045562
v 0.286778 0.140225 -0.045562
v 0.286778 0.086664 -0.119283
v 0.286778 -0.000000 -0.147442
v 0.309523 -0.000000 -0.147442
v 0.332267 -0.000000 -0.147442
v 0.355012 -0.000000 -0.147442
v 0.377756 -0.000000 -0.147442
v 0.400500 -0.000000 -0.147442
v 0.309523 0.086664 -0.119283
v 0.332267 0.086664 -0.119283
v 0.355012 0.086664 -0.119283
v 0.377756 0.086664 -0.119283
v 0.400500 0.086664 -0.119283
v 0.423245 -0.086664 -0.119283
v 0.400501 -0.086664 -0.119283
v 0.377756 -0.086664 -0.119283
v 0.355012 -0.086664 -0.119283
v 0.332267 -0.086664 -0.119283
v 0.423245 -0.140226 -0.045562
v 0.400501 -0.140226 -0.045562
v 0.377756 -0.140226 -0.045562
v 0.355012 -0.140226 -0.045562
v 0.332267 -0.140226 -0.045562
v 0.423245 -0.140226 0.045562
v 0.400501 -0.140226 0.045562
v 0.377756 -0.140226 0.045562
v 0.355012 -0.140226 0.045562
v 0.332267 -0.140226 0.045562
v 0.423245 -0.086664 0.119283
v 0.400501 -0.086664 0.119283
v 0.377756 -0.086664 0.119283
v 0.355012 -0.086664 0.119283
v 0.332267 -0.086664 0.119283
v 0.423245 -0.000000 0.147442
v 0.400501 -0.000000 0.147442
v 0.377756 -0.000000 0.147442
v 0.355012 -0.000000 0.147442
v 0.332267 -0.000000 0.147442
v 0.423245 0.086664 0.119283
v 0.400501 0.086664 0.119283
v 0.377756 0.086664 0.119283
v 0.355012 0.086664 0.119283
v 0.332267 0.086664 0.119283
v 0.423245 0.140225 0.045562
v 0.400501 0.140225 0.045562
v 0.377756 0.140225 0.045562
v 0.355012 0.140225 0.045562
v 0.332267 0.140225 0.045562
v 0.423245 0.140225 -0.045562
v 0.400501 0.140225 -0.045562
v 0.377756 0.140225 -0.045562
v 0.355012 0.140225 -0.045562
v 0.332267 0.140225 -0.045562
v 0.492833 -0.000000 -0.166176
v 0.528486 -0.000000 -0.166176
v 0.492833 0.097675 -0.134439
v 0.528486 0.097675 -0.134439
v 0.528486 -0.097676 -0.134439
v 0.528486 0.158042 0.051351
v 0.528486 0.158042 -0.051351
v 0.528486 -0.158043 -0.051351
v 0.528487 -0.158043 0.051351
v 0.528487 -0.097676 0.134439
v 0.528486 -0.000000 0.166176
v 0.528486 0.097676 0.134439
v 0.492833 -0.097676 -0.134439
v 0.492833 -0.158043 -0.051351
v 0.492833 -0.158043 0.051351
v 0.492833 -0.097676 0.134439
v 0.492833 -0.000000 0.166176
v 0.492833 0.097676 0.134439
v 0.492833 0.158042 0.051351
v 0.492833 0.158042 -0.051351
vn 0.7581 -0.5276 0.3833
vn -0.7396 -0.5445 0.3956
vn 0.7581 0.2015 0.6203
vn -0.7396 -0.2080 0.6401
vn -0.7396 0.2080 0.6401
vn 0.7581 -0.2015 -0.6203
vn 0.7581 0.6522 0.0000
vn 0.7581 -0.6522 0.0000
vn 1.0000 -0.0000 0.0000
vn -0.7396 0.5445 0.3956
vn 0.7581 0.2015 -0.6203
vn -0.0000 0.8090 0.5878
vn 0.0000 0.3090 0.9511
vn 0.0000 -0.3090 0.9511
vn -0.0000 0.3090 -0.9511
vn 0.0000 -0.8090 0.5878
vn 0.0000 -1.0000 0.0000
vn 0.0000 -0.8090 -0.5878
vn -0.0000 0.8090 -0.5878
vn -0.0000 1.0000 -0.0000
vn 0.0000 -0.3090 -0.9511
vn -1.0000 -0.0014 0.0044
vn -1.0000 -0.0038 0.0027
vn -1.0000 -0.0046 0.0000
vn -1.0000 -0.0038 -0.0027
vn -1.0000 -0.0014 -0.0044
vn -1.0000 0.0014 -0.0044
vn -1.0000 0.0038 -0.0027
vn -1.0000 0.0046 0.0000
vn -1.0000 0.0038 0.0027
vn -1.0000 0.0014 0.0044
vn 0.7581 0.5276 -0.3833
vn -0.7396 -0.6730 0.0000
vn -0.7396 0.2080 -0.6401
vn 0.7581 -0.5276 -0.3833
vn -0.7396 -0.5445 -0.3956
vn 0.7581 0.5276 0.3833
vn -0.7396 0.5445 -0.3956
vn -0.7396 -0.2080 -0.6401
vn 0.7581 -0.2015 0.6203
vn -0.7396 0.6730 0.0000
vn -1.0000 -0.0000 0.0000
vn 0.9987 -0.0516 -0.0000
vn 0.9987 -0.0417 -0.0303
vn 0.9987 0.0417 -0.0303
vn 0.9987 0.0417 0.0303
vn 0.9987 0.0516 -0.0000
vn 0.9987 0.0159 0.0490
vn 0.9987 -0.0159 0.0490
vn 0.9987 0.0159 -0.0490
vn 0.9987 -0.0417 0.0303
vn -0.1523 -0.3054 -0.9400
vn -0.1523 -0.7996 -0.5809
vn -0.1523 -0.9883 0.0000
vn -0.1523 -0.7996 0.5809
vn -0.1523 -0.3054 0.9400
vn -0.1523 0.3054 0.9400
vn -0.1523 0.7996 0.5809
vn -0.1523 0.9883 -0.0000
vn -0.1523 0.7996 -0.5809
vn -0.1523 0.3054 -0.9400
vn -0.9909 -0.1090 -0.0792
vn -0.9909 -0.1347 0.0000
vn -0.9909 -0.1090 0.0792
vn -0.9909 0.0416 -0.1281
vn 0.9267 -0.1161 -0.3574
vn 0.9717 -0.1913 -0.1390
vn 0.8696 -0.1526 0.4695
vn -0.9717 0.0731 0.2248
vn -0.9267 0.3040 0.2209
vn 0.8696 0.1526 0.4695
vn 0.9967 -0.0250 -0.0769
vn 0.9267 0.3758 -0.0000
vn 0.8696 0.3994 0.2902
vn -0.9967 -0.0250 -0.0769
vn -0.9717 -0.2364 0.0000
vn 0.9717 0.0731 0.2248
vn 0.9967 0.0808 -0.0000
vn 0.9267 0.1161 0.3574
vn -0.9267 -0.1161 -0.3574
vn -0.9967 0.0808 -0.0000
vn -0.9717 -0.0731 -0.2248
vn 0.9267 -0.3040 -0.2209
vn 0.9717 -0.2364 0.0000
vn 0.9967 0.0250 0.0769
vn -0.9717 0.1913 0.1390
vn -0.9267 0.3758 -0.0000
vn -0.9967 0.0250 0.0769
vn 0.9967 -0.0654 -0.0475
vn 0.9267 0.3040 -0.2209
vn 0.9717 -0.0731 -0.2248
vn -0.9967 -0.0654 -0.0475
vn -0.9717 -0.1913 0.1390
vn -0.9267 0.1161 0.3574
vn 0.9717 0.1913 0.1390
vn 0.9967 0.0654 -0.0475
vn 0.9267 -0.3758 0.0000
vn -0.9267 -0.3040 -0.2209
vn -0.9967 0.0654 -0.0475
vn -0.9717 0.2364 0.0000
vn 0.9717 -0.1913 0.1390
vn 0.9967 -0.0808 0.0000
vn -0.9267 0.3040 -0.2209
vn -0.8696 0.3994 0.2902
vn -0.9967 -0.0808 0.0000
vn 0.8696 0.1526 -0.4695
vn -0.9967 0.0654 0.0475
vn -0.9267 0.1161 -0.3574
vn 0.8696 -0.3994 0.2902
vn 0.9967 0.0654 0.0475
vn 0.9717 -0.0731 0.2248
vn 0.8696 -0.4937 0.0000
vn -0.9717 -0.1913 -0.1390
vn -0.9967 0.0250 -0.0769
vn 0.8696 -0.3994 -0.2902
vn 0.9267 0.3040 0.2209
vn -0.8696 -0.1526 -0.4695
vn 0.9967 0.0250 -0.0769
vn 0.8696 0.3994 -0.2902
vn -0.9267 -0.3040 0.2209
vn -0.8696 0.4937 0.0000
vn -0.9717 -0.0731 0.2248
vn 0.8696 0.4937 0.0000
vn 0.9717 0.1913 -0.1390
vn -0.8696 0.3994 -0.2902
vn 0.9267 0.1161 -0.3574
vn 0.8696 -0.1526 -0.4695
vn -0.9967 -0.0654 0.0475
vn -0.8696 -0.3994 -0.2902
vn -0.9267 -0.1161 0.3574
vn 0.9967 -0.0654 0.0475
vn -0.8696 -0.4937 0.0000
vn 0.9717 0.0731 -0.2248
vn -0.9717 0.1913 -0.1390
vn -0.8696 -0.3994 0.2902
vn -0.9967 -0.0250 0.0769
vn 0.9267 -0.3040 0.2209
vn -0.8696 0.1526 -0.4695
vn 0.9967 -0.0250 0.0769
vn -0.9267 -0.3758 0.0000
vn -0.8696 -0.1526 0.4695
vn -0.9717 0.0731 -0.2248
vn 0.9717 0.2364 0.0000
vn -0.8696 0.1526 0.4695
vn 0.9267 -0.1161 0.3574
vn -0.9909 0.1090 -0.0792
vn -0.9909 0.1090 0.0792
vn -0.9909 0.1347 0.0000
vn -0.9909 0.0416 0.1281
vn -0.9909 -0.0416 -0.1281
vn -0.9909 -0.0416 0.1281
vn 0.9987 -0.0159 -0.0490
usemtl Black
s off
f 4//1 5//1 56//1 55//1
f 45//2 44//2 64//2 65//2
f 6//3 7//3 58//3 57//3
f 46//4 45//4 65//4 66//4
f 47//5 46//5 66//5 67//5
f 1//6 2//6 51//6 52//6
f 8//7 9//7 60//7 59//7
f 3//8 4//8 55//8 54//8
f 9//9 29//9 30//9 10//9
f 48//10 47//10 67//10 68//10
f 10//11 1//11 52//11 61//11
f 98//12 47//12 48//12 99//12
f 97//13 46//13 47//13 98//13
f 96//14 45//14 46//14 97//14
f 93//15 50//15 41//15 91//15
f 95//16 44//16 45//16 96//16
f 94//17 43//17 44//17 95//17
f 92//18 42//18 43//18 94//18
f 100//19 49//19 50//19 93//19
f 99//20 48//20 49//20 100//20
f 8//9 28//9 29//9 9//9
f 7//9 27//9 28//9 8//9
f 6//9 26//9 27//9 7//9
f 5//9 25//9 26//9 6//9
f 2//9 21//9 23//9 3//9
f 4//9 24//9 25//9 5//9
f 3//9 23//9 24//9 4//9
f 10//9 30//9 22//9 1//9
f 1//9 22//9 21//9 2//9
f 30//16 29//16 39//16 40//16
f 31//9 32//9 40//9 39//9 38//9 37//9 36//9 35//9 34//9 33//9
f 27//21 26//21 36//21 37//21
f 24//20 23//20 33//20 34//20
f 22//14 30//14 40//14 32//14
f 28//18 27//18 37//18 38//18
f 25//19 24//19 34//19 35//19
f 21//13 22//13 32//13 31//13
f 29//17 28//17 38//17 39//17
f 26//15 25//15 35//15 36//15
f 23//12 21//12 31//12 33//12
f 80//22 71//22 11//22 20//22
f 79//23 80//23 20//23 19//23
f 78//24 79//24 19//24 18//24
f 77//25 78//25 18//25 17//25
f 76//26 77//26 17//26 16//26
f 75//27 76//27 16//27 15//27
f 74//28 75//28 15//28 14//28
f 73//29 74//29 14//29 13//29
f 72//30 73//30 13//30 12//30
f 71//31 72//31 12//31 11//31
f 53//21 52//21 51//21 62//21
f 62//18 51//18 54//18 63//18
f 63//17 54//17 55//17 64//17
f 64//16 55//16 56//16 65//16
f 65//14 56//14 57//14 66//14
f 66//13 57//13 58//13 67//13
f 67//12 58//12 59//12 68//12
f 68//20 59//20 60//20 69//20
f 69//19 60//19 61//19 70//19
f 70//15 61//15 52//15 53//15
f 9//32 10//32 61//32 60//32
f 44//33 43//33 63//33 64//33
f 41//34 50//34 70//34 53//34
f 2//35 3//35 54//35 51//35
f 43//36 42//36 62//36 63//36
f 7//37 8//37 59//37 58//37
f 50//38 49//38 69//38 70//38
f 42//39 41//39 53//39 62//39
f 5//40 6//40 57//40 56//40
f 49//41 48//41 68//41 69//41
f 79//42 78//42 116//42 118//42
f 74//42 73//42 106//42 108//42
f 95//43 299//43 298//43 94//43
f 94//44 298//44 295//44 92//44
f 76//42 75//42 110//42 112//42
f 93//45 294//45 297//45 100//45
f 71//42 80//42 120//42 101//42
f 99//46 296//46 302//46 98//46
f 78//42 77//42 114//42 116//42
f 91//21 41//21 42//21 92//21
f 17//12 18//12 88//12 87//12
f 14//16 15//16 85//16 84//16
f 11//21 12//21 82//21 81//21
f 18//20 19//20 89//20 88//20
f 15//14 16//14 86//14 85//14
f 12//18 13//18 83//18 82//18
f 19//19 20//19 90//19 89//19
f 16//13 17//13 87//13 86//13
f 13//17 14//17 84//17 83//17
f 20//15 11//15 81//15 90//15
f 73//42 72//42 104//42 106//42
f 100//47 297//47 296//47 99//47
f 98//48 302//48 301//48 97//48
f 80//42 79//42 118//42 120//42
f 75//42 74//42 108//42 110//42
f 97//49 301//49 300//49 96//49
f 91//50 292//50 294//50 93//50
f 77//42 76//42 112//42 114//42
f 72//42 71//42 101//42 104//42
f 96//51 300//51 299//51 95//51
f 102//52 103//52 104//52 101//52
f 103//53 105//53 106//53 104//53
f 105//54 107//54 108//54 106//54
f 107//55 109//55 110//55 108//55
f 109//56 111//56 112//56 110//56
f 111//57 113//57 114//57 112//57
f 113//58 115//58 116//58 114//58
f 115//59 117//59 118//59 116//59
f 117//60 119//60 120//60 118//60
f 119//61 102//61 101//61 120//61
f 122//62 121//62 303//62 304//62
f 123//63 122//63 304//63 305//63
f 124//64 123//64 305//64 306//64
f 129//65 130//65 293//65 291//65
f 136//12 126//12 127//12 137//12
f 135//13 125//13 126//13 136//13
f 134//14 124//14 125//14 135//14
f 140//15 130//15 129//15 139//15
f 133//16 123//16 124//16 134//16
f 132//17 122//17 123//17 133//17
f 131//18 121//18 122//18 132//18
f 138//19 128//19 130//19 140//19
f 137//20 127//20 128//20 138//20
f 139//21 129//21 121//21 131//21
f 193//66 187//66 271//66 276//66
f 173//67 167//67 255//67 260//67
f 145//68 144//68 230//68 232//68
f 188//69 194//69 277//69 272//69
f 168//70 174//70 225//70 223//70
f 146//71 145//71 232//71 234//71
f 195//72 189//72 273//72 278//72
f 175//73 169//73 256//73 261//73
f 147//74 146//74 234//74 236//74
f 190//75 196//75 279//75 274//75
f 113//12 146//12 147//12 115//12
f 111//13 145//13 146//13 113//13
f 109//14 144//14 145//14 111//14
f 119//15 150//15 149//15 102//15
f 107//16 143//16 144//16 109//16
f 105//17 142//17 143//17 107//17
f 103//18 141//18 142//18 105//18
f 117//19 148//19 150//19 119//19
f 115//20 147//20 148//20 117//20
f 102//21 149//21 141//21 103//21
f 170//76 176//76 262//76 257//76
f 198//12 197//12 203//12 204//12
f 197//77 191//77 275//77 280//77
f 196//12 195//12 201//12 202//12
f 177//78 171//78 258//78 263//78
f 194//12 193//12 199//12 200//12
f 163//79 156//79 211//79 251//79
f 192//13 191//13 197//13 198//13
f 192//80 198//80 233//80 231//80
f 190//13 189//13 195//13 196//13
f 172//81 178//81 264//81 259//81
f 188//13 187//13 193//13 194//13
f 155//82 164//82 252//82 245//82
f 186//14 185//14 191//14 192//14
f 199//83 193//83 276//83 281//83
f 184//14 183//14 189//14 190//14
f 179//84 173//84 260//84 265//84
f 182//14 181//14 187//14 188//14
f 165//85 154//85 244//85 253//85
f 157//15 158//15 152//15 151//15
f 194//86 200//86 282//86 277//86
f 159//15 160//15 154//15 153//15
f 174//87 180//87 227//87 225//87
f 161//15 162//15 156//15 155//15
f 153//88 166//88 254//88 243//88
f 180//16 179//16 185//16 186//16
f 201//89 195//89 278//89 283//89
f 178//16 177//16 183//16 184//16
f 181//90 175//90 261//90 266//90
f 176//16 175//16 181//16 182//16
f 167//91 152//91 242//91 255//91
f 174//17 173//17 179//17 180//17
f 196//92 202//92 284//92 279//92
f 172//17 171//17 177//17 178//17
f 176//93 182//93 267//93 262//93
f 170//17 169//17 175//17 176//17
f 151//94 168//94 223//94 241//94
f 168//18 167//18 173//18 174//18
f 203//95 197//95 280//95 285//95
f 166//18 165//18 171//18 172//18
f 183//96 177//96 263//96 268//96
f 164//18 163//18 169//18 170//18
f 205//97 199//97 281//97 286//97
f 210//19 209//19 158//19 157//19
f 198//98 204//98 235//98 233//98
f 208//19 207//19 160//19 159//19
f 178//99 184//99 269//99 264//99
f 206//19 205//19 162//19 161//19
f 200//100 206//100 287//100 282//100
f 204//20 203//20 209//20 210//20
f 185//101 179//101 265//101 270//101
f 202//20 201//20 207//20 208//20
f 207//102 201//102 283//102 288//102
f 200//20 199//20 205//20 206//20
f 180//103 186//103 229//103 227//103
f 151//21 152//21 167//21 168//21
f 136//104 137//104 216//104 222//104
f 153//21 154//21 165//21 166//21
f 202//105 208//105 289//105 284//105
f 155//21 156//21 163//21 164//21
f 211//21 212//21 215//21 251//21
f 281//20 216//20 217//20 286//20
f 286//19 217//19 214//19 213//19
f 251//18 215//18 218//18 256//18
f 256//17 218//17 219//17 261//17
f 261//16 219//16 220//16 266//16
f 213//15 214//15 212//15 211//15
f 266//14 220//14 221//14 271//14
f 271//13 221//13 222//13 276//13
f 276//12 222//12 216//12 281//12
f 234//12 233//12 235//12 236//12
f 280//12 279//12 284//12 285//12
f 278//12 277//12 282//12 283//12
f 232//13 231//13 233//13 234//13
f 275//13 274//13 279//13 280//13
f 273//13 272//13 277//13 278//13
f 230//14 229//14 231//14 232//14
f 270//14 269//14 274//14 275//14
f 268//14 267//14 272//14 273//14
f 239//15 246//15 241//15 240//15
f 247//15 248//15 243//15 242//15
f 249//15 250//15 245//15 244//15
f 228//16 227//16 229//16 230//16
f 265//16 264//16 269//16 270//16
f 263//16 262//16 267//16 268//16
f 226//17 225//17 227//17 228//17
f 260//17 259//17 264//17 265//17
f 258//17 257//17 262//17 263//17
f 224//18 223//18 225//18 226//18
f 255//18 254//18 259//18 260//18
f 253//18 252//18 257//18 258//18
f 238//19 237//19 246//19 239//19
f 290//19 289//19 248//19 247//19
f 288//19 287//19 250//19 249//19
f 236//20 235//20 237//20 238//20
f 285//20 284//20 289//20 290//20
f 283//20 282//20 287//20 288//20
f 240//21 241//21 223//21 224//21
f 242//21 243//21 254//21 255//21
f 244//21 245//21 252//21 253//21
f 149//106 150//106 239//106 240//106
f 166//107 172//107 259//107 254//107
f 186//108 192//108 231//108 229//108
f 144//109 143//109 228//109 230//109
f 171//110 165//110 253//110 258//110
f 191//111 185//111 270//111 275//111
f 143//112 142//112 226//112 228//112
f 164//113 170//113 257//113 252//113
f 184//114 190//114 274//114 269//114
f 142//115 141//115 224//115 226//115
f 169//116 163//116 251//116 256//116
f 139//117 131//117 215//117 212//117
f 189//118 183//118 268//118 273//118
f 150//119 148//119 238//119 239//119
f 210//120 157//120 246//120 237//120
f 137//121 138//121 217//121 216//121
f 182//122 188//122 272//122 267//122
f 148//123 147//123 236//123 238//123
f 158//124 209//124 290//124 247//124
f 138//125 140//125 214//125 217//125
f 187//126 181//126 266//126 271//126
f 141//127 149//127 240//127 224//127
f 208//128 159//128 248//128 289//128
f 131//129 132//129 218//129 215//129
f 157//130 151//130 241//130 246//130
f 160//131 207//131 288//131 249//131
f 132//132 133//132 219//132 218//132
f 152//133 158//133 247//133 242//133
f 206//134 161//134 250//134 287//134
f 133//135 134//135 220//135 219//135
f 159//136 153//136 243//136 248//136
f 162//137 205//137 286//137 213//137
f 140//138 139//138 212//138 214//138
f 154//139 160//139 249//139 244//139
f 204//140 210//140 237//140 235//140
f 134//141 135//141 221//141 220//141
f 161//142 155//142 245//142 250//142
f 209//143 203//143 285//143 290//143
f 135//144 136//144 222//144 221//144
f 156//145 162//145 213//145 211//145
f 291//21 292//21 295//21 303//21
f 309//20 296//20 297//20 310//20
f 310//19 297//19 294//19 293//19
f 303//18 295//18 298//18 304//18
f 304//17 298//17 299//17 305//17
f 305//16 299//16 300//16 306//16
f 293//15 294//15 292//15 291//15
f 306//14 300//14 301//14 307//14
f 307//13 301//13 302//13 308//13
f 308//12 302//12 296//12 309//12
f 130//146 128//146 310//146 293//146
f 127//147 126//147 308//147 309//147
f 128//148 127//148 309//148 310//148
f 126//149 125//149 307//149 308//149
f 121//150 129//150 291//150 303//150
f 125//151 124//151 306//151 307//151
f 92//152 295//152 292//152 91//152
